<svg width="158" height="158" viewBox="0 0 158 158" fill="none" xmlns="http://www.w3.org/2000/svg">
<g id="Livello_1" clip-path="url(#clip0_50_67)">
<path id="Vector" d="M69.4583 122.166L71.5944 122.867L68.6472 134.12L64.327 132.703C62.1257 131.98 61.2532 130.242 61.8156 128.097C62.2463 126.453 63.3778 125.511 64.8766 125.67L63.6541 120.262L66.0018 121.033L67.0266 126.114L68.3149 126.535L69.4583 122.166ZM66.1395 127.607C64.9988 127.232 64.406 127.528 64.1449 128.528L63.9849 129.142C63.7227 130.141 64.0785 130.748 65.2192 131.123L66.964 131.696L67.8842 128.182L66.1394 127.609L66.1395 127.607Z" fill="black"/>
<path id="Vector_2" d="M62.4121 119.61L57.0973 129.802L50.4722 125.974L51.2947 124.397L55.9521 127.088L57.3387 124.431L52.8475 121.836L53.67 120.26L58.1612 122.854L59.6231 120.051L54.9657 117.36L55.7882 115.783L62.4133 119.611L62.4121 119.61Z" fill="black"/>
<path id="Vector_3" d="M49.2776 110.258L48.0294 113.021L50.7284 115.424L53.2414 113.787L54.9624 115.321L44.9654 121.701L42.5919 119.588L47.4658 108.645L49.2776 110.258ZM45.1396 119.032L45.2437 119.125L49.2864 116.485L47.1732 114.604L45.1372 119.032L45.1396 119.032Z" fill="black"/>
<path id="Vector_4" d="M37.75 114.67L35.4724 111.64C33.5736 109.112 34.271 106.693 37.2476 104.509C40.2254 102.325 42.769 102.364 44.6678 104.892L46.9442 107.924L37.75 114.67ZM43.3787 106.031C42.3714 104.691 41.0431 104.69 39.4754 105.841L37.881 107.012C36.326 108.153 35.9417 109.409 36.9491 110.75L37.7772 111.853L44.2056 107.135L43.3775 106.032L43.3787 106.031Z" fill="black"/>
<path id="Vector_5" d="M39.9807 97.3863L36.1255 99.0321L31.1172 105.458L30.0327 103.163L31.9708 100.806L33.6644 98.8937L33.6131 98.7838L30.9764 98.7006L27.8277 98.4962L26.7794 96.2809L35.1603 96.9884L39.0155 95.3427L39.9819 97.3852L39.9807 97.3863Z" fill="black"/>
<path id="Vector_6" d="M25.0441 76.1482L34.9784 76.5597L35.0354 78.7653L25.1011 78.3538L25.1921 81.9181L23.3728 81.8424L23.1313 72.5081L24.9495 72.5824L25.0404 76.1466L25.0441 76.1482Z" fill="black"/>
<path id="Vector_7" d="M29.1652 71.058C25.3922 70.0824 23.4503 68.1641 24.0219 65.1726C24.5947 62.1799 27.0534 61.4021 30.8251 62.3788C34.5969 63.3555 36.54 65.2727 35.9684 68.2643C35.3956 71.2569 32.9369 72.0347 29.1652 71.058ZM31.3644 64.9137L29.3965 64.4042C27.4114 63.8906 26.0855 64.1003 25.7926 65.6278C25.5008 67.1567 26.6237 68.0003 28.6101 68.5128L30.5952 69.0265C32.5804 69.5401 33.9062 69.3304 34.1992 67.8029C34.4909 66.274 33.3681 65.4304 31.3657 64.9126L31.3644 64.9137Z" fill="black"/>
<path id="Vector_8" d="M31.3669 46.753L33.4888 43.9019C35.2597 41.5244 37.8068 41.6937 40.9062 44.127C44.0044 46.5616 44.8311 49.0422 43.0601 51.4197L40.9383 54.2708L31.3669 46.753ZM41.5323 50.4067C42.4721 49.1459 42.0212 47.8538 40.3883 46.5722L38.7287 45.268C37.1104 43.9978 35.7792 43.8876 34.8406 45.1497L34.0677 46.1885L40.7594 51.4455L41.5323 50.4067Z" fill="black"/>
<path id="Vector_9" d="M48.3294 45.5445L46.6976 46.9273L38.7883 37.6391L42.0902 34.8398C43.773 33.4145 45.6486 33.7265 47.1538 35.4961C48.3098 36.8533 48.5363 38.3792 47.6675 39.5509L52.7647 41.7841L50.971 43.3046L46.2431 41.1025L45.2589 41.9372L48.3294 45.5445ZM45.4363 39.4524C46.3096 38.713 46.3535 38.0347 45.65 37.2096L45.2191 36.7045C44.5156 35.8794 43.838 35.8119 42.9659 36.5527L41.6324 37.6827L44.1016 40.5835L45.4351 39.4536L45.4363 39.4524Z" fill="black"/>
<path id="Vector_10" d="M53.8619 41.1502L53.0381 39.6557L55.3284 38.4809L51.1054 30.8236L48.8151 31.9985L47.9912 30.504L54.4699 27.1818L55.2937 28.6763L53.0033 29.8512L57.2263 37.5085L59.5167 36.3336L60.3405 37.8281L53.8619 41.1502Z" fill="black"/>
<path id="Vector_11" d="M61.4324 28.4182L61.2709 28.4586L63.8181 36.7256L62.0191 37.1774L58.472 25.659L61.0573 25.0096L66.5428 32.5396L66.7043 32.4992L64.1583 24.231L65.9561 23.7804L69.5032 35.2988L66.9179 35.9482L61.4324 28.4182Z" fill="black"/>
<path id="Vector_12" d="M74.1868 29.7957L73.1095 31.4561L73.4328 35.0218L71.2368 35.0766L70.1612 23.2222L72.3584 23.1688L72.8413 28.501L72.942 28.4996L74.1227 26.4961L76.284 23.0724L78.766 23.0107L75.546 28.0955L80.0082 34.8614L77.5262 34.9231L74.1867 29.7982L74.1868 29.7957Z" fill="black"/>
<path id="Vector_13" d="M91.7074 31.4422C92.9891 27.85 95.0845 26.379 97.9781 27.5955C100.188 28.5243 100.849 30.2037 100.718 32.1065L98.6216 31.8365C98.6978 30.7009 98.5409 29.7558 97.3495 29.2537C95.9186 28.652 94.9185 29.5612 94.2511 31.4352L93.5825 33.3103C92.9138 35.1854 93.0893 36.5865 94.5202 37.1882C95.7129 37.6893 96.4138 37.1039 97.0619 36.2089L98.7802 37.5413C97.6966 39.0426 96.1642 39.8 93.9554 38.8726C91.063 37.6574 90.4257 35.0369 91.7074 31.4447L91.7074 31.4422Z" fill="black"/>
<path id="Vector_14" d="M101.584 35.8102C103.603 32.6595 105.955 31.6317 108.563 33.4292C111.17 35.2268 111.168 37.8746 109.151 41.0267C107.132 44.1773 104.78 45.2052 102.172 43.4077C99.5642 41.6101 99.5664 38.9623 101.585 35.8116L101.584 35.8102ZM106.636 40.4675L107.689 38.8234C108.752 37.164 108.948 35.8255 107.615 34.9077C106.282 33.9898 105.169 34.6958 104.108 36.3541L103.045 38.0135C101.983 39.6729 101.786 41.0114 103.12 41.9292C104.453 42.8471 105.566 42.1411 106.637 40.4688L106.636 40.4675Z" fill="black"/>
<path id="Vector_15" d="M110.812 42.477C113.506 39.8566 116.079 39.4482 118.283 41.7416C119.965 43.4935 119.888 45.2505 118.975 46.8708L117.123 45.745C117.667 44.7774 117.913 43.8793 117.005 42.9343C115.916 41.7995 114.601 42.1763 113.196 43.5438L111.79 44.9114C110.385 46.2789 109.967 47.587 111.056 48.7218C111.965 49.6668 112.865 49.4491 113.844 48.9359L114.898 50.836C113.259 51.7001 111.511 51.7189 109.828 49.9681C107.623 47.6747 108.117 45.0986 110.811 42.4782L110.812 42.477Z" fill="black"/>
<path id="Vector_16" d="M119.895 54.3985L117.868 54.1352L114.927 55.9141L113.701 53.9859L123.476 48.0749L124.702 50.0031L120.305 52.6615L120.362 52.7494L122.744 52.96L126.892 53.4481L128.275 55.6276L122.109 54.8921L118.594 61.6863L117.21 59.5068L119.896 54.3973L119.895 54.3985Z" fill="black"/>
<path id="Vector_17" d="M129.856 64.1108L120.6 67.1239L119.804 65.0168L129.059 62.0037L127.771 58.6007L129.465 58.0501L132.836 66.9618L131.141 67.5135L129.853 64.1105L129.856 64.1108Z" fill="black"/>
<path id="Vector_18" d="M123.07 77.9553L125.885 76.8567L125.339 73.3553L122.269 72.8129L121.921 70.58L134.047 72.8307L134.526 75.91L123.434 80.3071L123.068 77.9564L123.07 77.9553ZM132.145 74.5839L132.123 74.4483L127.18 73.5791L127.607 76.3201L132.144 74.5826L132.145 74.5839Z" fill="black"/>
<path id="Vector_19" d="M123.363 81.2398L125.012 81.446L124.862 84.0931L133.302 85.1484L133.452 82.5013L135.099 82.7061L134.673 90.1906L133.025 89.9858L133.175 87.3386L124.735 86.2834L124.585 88.9305L122.937 88.7256L123.364 81.2411L123.363 81.2398Z" fill="black"/>
<path id="Vector_20" d="M122.504 91.0792L133.83 95.0175L133.238 97.116L123.665 93.7872L122.27 98.7385L120.518 98.1291L122.504 91.0792Z" fill="black"/>
<path id="Vector_21" d="M113.477 113L115.299 112.988L115.428 114.753L115.419 115.856L115.486 115.894L116.414 114.707L119.836 110.948L121.295 112.315L117.872 116.074L116.779 117.106L116.822 117.17L117.906 117.072L119.651 117.06L119.785 118.903L113.91 118.941L113.477 113Z" fill="black"/>
<path id="Vector_22" d="M100.079 61.0095C89.1718 48.6161 70.9404 46.8326 59.3578 57.026C47.7752 67.2194 47.2275 85.5296 58.1345 97.923C69.0415 110.316 87.2728 112.1 98.8554 101.906C110.438 91.7131 110.986 73.4028 100.079 61.0095Z" fill="#FFAE2D"/>
</g>
<defs>
<clipPath id="clip0_50_67">
<rect width="114.514" height="108.643" fill="white" transform="translate(75.6543 157.74) rotate(-131.35)"/>
</clipPath>
</defs>
</svg>
